<svg xmlns="http://www.w3.org/2000/svg" viewBox="0 0 890 340">
  <defs>
    <style>
      .cls-1 {
        fill: #fff;
      }

      .cls-2 {
        font-size: 120px;
        font-family: GothamRounded-Bold, Gotham Rounded;
        font-weight: 700;
      }

      .cls-3 {
        letter-spacing: -0.03999em;
      }
    </style>
  </defs>
  <g id="Layer_2" data-name="Layer 2">
    <g id="Layer_1-2" data-name="Layer 1">
      <g>
        <path class="cls-1" d="M58.17285,10H831.82764A48.17236,48.17236,0,0,1,880,58.17236V281.82715A48.17285,48.17285,0,0,1,831.82715,330H58.17285A48.17285,48.17285,0,0,1,10,281.82715V58.17285A48.17285,48.17285,0,0,1,58.17285,10Z"/>
        <path d="M831.82764,20A38.17247,38.17247,0,0,1,870,58.17261V281.82739A38.17247,38.17247,0,0,1,831.82764,320H58.17236A38.17247,38.17247,0,0,1,20,281.82739V58.17261A38.17247,38.17247,0,0,1,58.17236,20H831.82764m0-20H58.17236A58.23851,58.23851,0,0,0,0,58.17261V281.82739A58.23849,58.23849,0,0,0,58.17236,340H831.82764A58.23849,58.23849,0,0,0,890,281.82739V58.17261A58.23851,58.23851,0,0,0,831.82764,0Z"/>
      </g>
      <text class="cls-2" transform="translate(120.46338 151.87962)">FUL<tspan class="cls-3" x="243.7168" y="0">L</tspan><tspan x="313.19629" y="0">-SIZE</tspan><tspan x="104.39941" y="120.00049">(100%)</tspan></text>
    </g>
  </g>
</svg>
