<svg xmlns="http://www.w3.org/2000/svg" viewBox="0 0 515 230">
  <defs>
    <style>
      .cls-1 {
        fill: #fff;
      }

      .cls-2 {
        font-size: 120px;
        font-family: GothamRounded-Bold, Gotham Rounded;
        font-weight: 700;
      }
    </style>
  </defs>
  <g id="Layer_2" data-name="Layer 2">
    <g id="Layer_1-2" data-name="Layer 1">
      <g>
        <path class="cls-1" d="M42.70947,10.00012H472.29053A32.70947,32.70947,0,0,1,505,42.70959V187.29114a32.709,32.709,0,0,1-32.709,32.709H42.709A32.709,32.709,0,0,1,10,187.29114V42.70959A32.70947,32.70947,0,0,1,42.70947,10.00012Z"/>
        <path d="M472.29065,20A22.70937,22.70937,0,0,1,495,42.70932V187.29065A22.7094,22.7094,0,0,1,472.29065,210H42.70932A22.70937,22.70937,0,0,1,20,187.29065V42.70932A22.70935,22.70935,0,0,1,42.70932,20H472.29065m0-20H42.70932A42.7577,42.7577,0,0,0,0,42.70932V187.29065A42.75773,42.75773,0,0,0,42.70932,230H472.29065A42.75775,42.75775,0,0,0,515,187.29065V42.70932A42.75773,42.75773,0,0,0,472.29065,0Z"/>
      </g>
      <text class="cls-2" transform="translate(121.36185 157.00021)">40%</text>
    </g>
  </g>
</svg>
