<svg xmlns="http://www.w3.org/2000/svg" viewBox="0 0 685 270">
  <defs>
    <style>
      .cls-1 {
        fill: #fff;
      }

      .cls-2 {
        font-size: 120px;
        font-family: GothamRounded-Bold, Gotham Rounded;
        font-weight: 700;
      }
    </style>
  </defs>
  <g id="Layer_2" data-name="Layer 2">
    <g id="Layer_1-2" data-name="Layer 1">
      <g>
        <path class="cls-1" d="M49.11523,10h586.769A39.11572,39.11572,0,0,1,675,49.11572v171.769A39.11523,39.11523,0,0,1,635.88477,260H49.11523A39.11523,39.11523,0,0,1,10,220.88477V49.11523A39.11523,39.11523,0,0,1,49.11523,10Z"/>
        <path d="M635.88452,20A29.11549,29.11549,0,0,1,665,49.1156V220.8844A29.11549,29.11549,0,0,1,635.88452,250H49.11548A29.11549,29.11549,0,0,1,20,220.8844V49.1156A29.11549,29.11549,0,0,1,49.11548,20h586.769m0-20H49.11548A49.17109,49.17109,0,0,0,0,49.1156V220.8844A49.17109,49.17109,0,0,0,49.11548,270h586.769A49.17109,49.17109,0,0,0,685,220.8844V49.1156A49.17109,49.17109,0,0,0,635.88452,0Z"/>
      </g>
      <text class="cls-2" transform="translate(212.84253 176.99964)">65%</text>
    </g>
  </g>
</svg>
