<svg xmlns="http://www.w3.org/2000/svg" viewBox="0 0 640 265">
  <defs>
    <style>
      .cls-1 {
        fill: #fff;
      }

      .cls-2 {
        font-size: 120px;
        font-family: GothamRounded-Bold, Gotham Rounded;
        font-weight: 700;
      }
    </style>
  </defs>
  <g id="Layer_2" data-name="Layer 2">
    <g id="Layer_1-2" data-name="Layer 1">
      <g>
        <path class="cls-1" d="M47.77466,9.99988H592.22534a37.7749,37.7749,0,0,1,37.7749,37.7749V217.22449a37.77539,37.77539,0,0,1-37.77539,37.77539H47.77466a37.77441,37.77441,0,0,1-37.77441-37.77441V47.77429A37.77441,37.77441,0,0,1,47.77466,9.99988Z"/>
        <path d="M592.22534,20A27.77467,27.77467,0,0,1,620,47.77463V217.2254A27.77466,27.77466,0,0,1,592.22534,245H47.77454A27.77456,27.77456,0,0,1,20,217.2254V47.77463A27.77457,27.77457,0,0,1,47.77454,20h544.4508m0-20H47.77454A47.82866,47.82866,0,0,0,0,47.77463V217.2254A47.82867,47.82867,0,0,0,47.77454,265h544.4508A47.82878,47.82878,0,0,0,640,217.2254V47.77463A47.82876,47.82876,0,0,0,592.22534,0Z"/>
      </g>
      <text class="cls-2" transform="translate(184.34308 174.49989)">60%</text>
    </g>
  </g>
</svg>
