<svg xmlns="http://www.w3.org/2000/svg" viewBox="0 0 685 315">
  <defs>
    <style>
      .cls-1 {
        fill: #fff;
      }

      .cls-2 {
        font-size: 120px;
        font-family: GothamRounded-Bold, Gotham Rounded;
        font-weight: 700;
        letter-spacing: -0.025em;
      }

      .cls-3 {
        letter-spacing: 0em;
      }
    </style>
  </defs>
  <g id="Layer_2" data-name="Layer 2">
    <g id="Layer_1-2" data-name="Layer 1">
      <g>
        <path class="cls-1" d="M51.83691,10H633.16357A41.83643,41.83643,0,0,1,675,51.83643V263.16357A41.83643,41.83643,0,0,1,633.16357,305H51.83691A41.83691,41.83691,0,0,1,10,263.16309V51.83691A41.83691,41.83691,0,0,1,51.83691,10Z"/>
        <path d="M633.16333,20A31.83658,31.83658,0,0,1,665,51.83667V263.16333A31.83658,31.83658,0,0,1,633.16333,295H51.83667A31.83658,31.83658,0,0,1,20,263.16333V51.83667A31.83658,31.83658,0,0,1,51.83667,20H633.16333m0-20H51.83667A51.89546,51.89546,0,0,0,0,51.83667V263.16333A51.89544,51.89544,0,0,0,51.83667,315H633.16333A51.89544,51.89544,0,0,0,685,263.16333V51.83667A51.89546,51.89546,0,0,0,633.16333,0Z"/>
      </g>
      <text class="cls-2" transform="translate(216.44165 199.2599)">7<tspan class="cls-3" x="71.2793" y="0">5%</tspan></text>
    </g>
  </g>
</svg>
