<svg id="Layer_1" data-name="Layer 1" xmlns="http://www.w3.org/2000/svg" viewBox="0 0 437.62027 167.01231">
  <defs>
    <style>
      .cls-1, .cls-3 {
        fill: #fff;
      }

      .cls-1, .cls-2, .cls-3 {
        stroke: #000;
        stroke-miterlimit: 10;
      }

      .cls-1, .cls-2 {
        stroke-width: 17px;
      }

      .cls-2 {
        fill: none;
      }

      .cls-3 {
        stroke-width: 11px;
      }
    </style>
  </defs>
  <g>
    <path class="cls-1" d="M51.99888,248.12887l401.511,62.63933c3.96219.61814,7.58849-2.99846,8.09957-8.07789l4.64047-46.11967c.51108-5.07944-2.28659-9.69823-6.24878-10.31637l-401.511-62.63933c-3.96219-.61814-7.58849,2.99846-8.09957,8.07789L45.7501,237.8125C45.239,242.89193,48.03669,247.51073,51.99888,248.12887Z" transform="translate(-37.18987 -175.04615)"/>
    <path class="cls-2" d="M454.11073,309.85543H74.27878a74.48283,74.48283,0,0,1-14.41221-21.09778,93.909,93.909,0,0,1-8.18929-40.08575Q252.894,279.2637,454.11073,309.85543Z" transform="translate(-37.18987 -175.04615)"/>
    <path class="cls-3" d="M414.57082,316.64063c.53984,8.67079,9.38247,15.57229,20.24387,15.57229,11.20923,0,20.296-7.34477,20.296-16.405a13.42614,13.42614,0,0,0-.12062-1.76116C441.39418,315.43044,428.08568,316.80381,414.57082,316.64063Z" transform="translate(-37.18987 -175.04615)"/>
    <path class="cls-3" d="M75.13426,315.49771c.69954,10.46414,10.99039,19.58945,24.13032,20.902,14.064,1.40487,26.0589-6.67154,26.79127-18.03934.02272-.35262.00124-.70076.002-1.05129C109.114,315.41049,92.30486,315.46566,75.13426,315.49771Z" transform="translate(-37.18987 -175.04615)"/>
  </g>
</svg>
