<svg id="Layer_1" data-name="Layer 1" xmlns="http://www.w3.org/2000/svg" viewBox="0 0 503.99994 311.486">
  <g>
    <path d="M121.035,194.257A22.9949,22.9949,0,0,0,98,217.308v265.4a22.98383,22.98383,0,0,0,23.035,23.035h457.93A22.9838,22.9838,0,0,0,602,482.708v-265.4a22.99745,22.99745,0,0,0-23.035-23.051Zm20.902,21.672h416.12c11.598,0,20.926,8.85159,20.926,19.84v228.48c0,10.984-9.32812,19.828-20.926,19.828l-416.12-.0039c-11.598,0-20.941-8.83981-20.941-19.828v-228.48c0-10.988,9.3438-19.84,20.941-19.84Z" transform="translate(-98.00003 -194.257)"/>
    <path d="M152.045,227.477c-11.035,0-19.906,8.08591-19.906,18.129v208.85c0,10.043,8.8711,18.129,19.906,18.129h395.88c11.035,0,19.918-8.08591,19.918-18.129V245.606c0-10.043-8.88672-18.129-19.918-18.129Zm3.8594,21.789h45.039v14.137h171.65a22.93891,22.93891,0,1,1,.887,20.2934h-172.54v12.508l-45.039-.00391Zm359.88.44922h.00391a22.92572,22.92572,0,0,1,9.69537,43.6998v53.55108a22.92406,22.92406,0,1,1-20.29357.42548v-54.402a22.93265,22.93265,0,0,1,10.5982-43.27421Zm-259.1,61.113h54.602a10.26085,10.26085,0,0,1,10.277,10.293v54.602a10.2635,10.2635,0,0,1-10.277,10.293h-54.602a10.27445,10.27445,0,0,1-10.293-10.293v-54.602a10.27439,10.27439,0,0,1,10.293-10.293Zm-100.78,6.33979h45.039v46.949l-12.73-.0039v47a22.942,22.942,0,1,1-20.3051.71917v-47.719h-12.004Zm237.66,27.625.00391-.00391a22.92663,22.92663,0,0,1,9.86731,43.62082v47.77c0,4.03909-3.52341,7.293-7.8906,7.293h-88.262a22.95052,22.95052,0,1,1,1.30063-20.3053h74.547v-35.039a22.92389,22.92389,0,0,1,10.43786-43.34012Zm51.789,63.062h83.047c5.25781,0,9.49609,5.45309,9.49609,12.215v19.309c0,6.76169-4.23828,12.215-9.49609,12.215l-83.047-.0039c-5.25781,0-9.4805-5.46091-9.4805-12.215v-19.309c0-6.76169,4.22269-12.215,9.48441-12.215Z" transform="translate(-98.00003 -194.257)"/>
  </g>
</svg>
