<svg width="24" height="24" viewBox="0 0 24 24" fill="none" xmlns="http://www.w3.org/2000/svg">
<path d="M17.0562 5.67174L5.67175 17.0562C5.30075 17.4272 5.30075 18.0287 5.67175 18.3997L5.74246 18.4704C6.11346 18.8414 6.71497 18.8414 7.08597 18.4704L18.4704 7.08595C18.8414 6.71495 18.8414 6.11344 18.4704 5.74244L18.3997 5.67174C18.0287 5.30074 17.4272 5.30074 17.0562 5.67174Z" fill="black"/>
<path d="M18.5415 17.1272L7.15704 5.74283C6.78604 5.37183 6.18454 5.37183 5.81354 5.74283L5.74283 5.81354C5.37183 6.18454 5.37183 6.78604 5.74283 7.15704L17.1272 18.5415C17.4982 18.9125 18.0998 18.9125 18.4708 18.5415L18.5415 18.4707C18.9125 18.0998 18.9125 17.4982 18.5415 17.1272Z" fill="black"/>
</svg>
