<svg id="Layer_1" data-name="Layer 1" xmlns="http://www.w3.org/2000/svg" viewBox="0 0 139.71258 42.55122">
  <defs>
    <style>
      .cls-1 {
        fill: #1e1e1e;
      }

      .cls-2 {
        fill: #56597a;
      }
    </style>
  </defs>
  <g>
    <path class="cls-1" d="M147.35,29.26223c-7.68211-6.86-14.19329-12.6105-19.72932-17.5826-2.40395-2.13653-4.58847-4.05572-6.62478-5.91932a61.032,61.032,0,0,0-4.92534-4.30263c-2.926-2.06273-5.9408-1.32284-8.08143-1.32284-3.211,0-6.4461-.05359-9.65353-.05359Q91.28978.0519,84.27482.02256C83.27,1.6101,81.5289,3.71861,81.59563,5.46162c.13456,3.51457,3.56116,0,6.13535,1.35315-2.77,2.91978-2.99939,7.92459-7.12406,10.76284,3.63144,0,7.38925,1.00337,10.71831-.97388a62.018,62.018,0,0,1-8.22436,19.027c12.04717.31507,24.13274.4732,36.114.3132,6.21451,0,12.23742-.16086,18.44006-.16086,4.814,0,10.97161.97464,12.13066-2.795C149.90453,32.0969,148.69836,30.51286,147.35,29.26223Z" transform="translate(-10.08111 -0.00574)"/>
    <path class="cls-1" d="M85.21954,20.6817c-3.74039,2.23612-7.63322,1.10033-11.495,1.10033,4.687-3.201,5.45532-8.80354,8.675-12.04748-2.5695-1.49729-6.54825,2.39965-6.31314-1.49729.116-1.92306,2.16405-4.24091,3.38063-5.98q-12.7178-.05559-25.41259-.11091H48.53821a14.02054,14.02054,0,0,0-4.356.17512c-1.569.473-2.92734,1.88287-4.33567,3.17318C32.45819,11.1108,23.36774,18.63194,12.1561,28.71905c-1.08912.95562-2.18052,2.50607-2.06681,3.08512,1.23454,3.81851,4.93819,5.28342,9.43551,6.11945,5.35274.85248,11.10305,1.372,16.73891,2.07455,12.20165,1.2567,24.82969,2.17635,37.7527,2.54941.12612.00366.25226.00583.3784.00937A81.93945,81.93945,0,0,0,85.21954,20.6817Z" transform="translate(-10.08111 -0.00574)"/>
    <path class="cls-2" d="M48.44375,4.20434c-1.37226-.49909-3.31474-.25073-5.49381.8316a3.15959,3.15959,0,0,0-1.20181,1.06011l-.10675.06765c-1.41214.89485-1.58163,2.11-.74415,2.25651a5.13238,5.13238,0,0,0,1.50227,0,7.95223,7.95223,0,0,0,5.63243-2.39164C48.8078,5.2971,48.97238,4.394,48.44375,4.20434Z" transform="translate(-10.08111 -0.00574)"/>
    <path class="cls-2" d="M43.40829,11.76177a2.36438,2.36438,0,0,0-1.85411-.73135c-1.15138-.23987-2.78248.24181-4.70586,1.39664-1.08432.6801-1.87228,2.08672-1.49366,2.53951.97947,1.68517,3.854,1.20819,6.84633-.72139C43.182,13.62724,43.77912,12.25937,43.40829,11.76177Z" transform="translate(-10.08111 -0.00574)"/>
    <path class="cls-2" d="M58.93723,4.20434a6.73981,6.73981,0,0,0-5.32887.8316,2.36646,2.36646,0,0,0-.99156,1.06011l-.09334.06765c-1.23465.89485-1.16314,2.11-.29661,2.25651a5.13848,5.13848,0,0,0,1.50227,0,6.49968,6.49968,0,0,0,5.1581-2.39164C59.57719,5.2971,59.50347,4.394,58.93723,4.20434Z" transform="translate(-10.08111 -0.00574)"/>
    <path class="cls-2" d="M55.40065,11.76177a2.85588,2.85588,0,0,0-1.99917-.73135c-1.19895-.23987-2.73452.24181-4.42886,1.39664-.94943.6801-1.45842,2.08672-.99,2.53951,1.31368,1.68517,4.09358,1.20819,6.70325-.72139C55.54438,13.62724,55.87016,12.25937,55.40065,11.76177Z" transform="translate(-10.08111 -0.00574)"/>
    <path class="cls-2" d="M69.43071,4.20434a6.21656,6.21656,0,0,0-5.16394.8316,1.7884,1.7884,0,0,0-.78131,1.06011l-.07992.06765c-1.05717.89485-.74465,2.11.15093,2.25651a5.14243,5.14243,0,0,0,1.50227,0A5.26112,5.26112,0,0,0,69.7425,6.02857C70.2874,5.2971,70.09274,4.394,69.43071,4.20434Z" transform="translate(-10.08111 -0.00574)"/>
    <path class="cls-2" d="M67.45926,11.76177a3.42052,3.42052,0,0,0-2.145-.73135,5.28017,5.28017,0,0,0-4.15033,1.39664c-.81381.6801-1.04227,2.08672-.48355,2.53951,1.64976,1.68517,4.33452,1.20819,6.55939-.72139A1.84377,1.84377,0,0,0,67.45926,11.76177Z" transform="translate(-10.08111 -0.00574)"/>
    <path class="cls-2" d="M85.18383,3.47713a1.25361,1.25361,0,0,0-.78915-1.66069,6.15024,6.15024,0,0,0-1.16494-.20529c-.84511,1.266-1.6749,2.65885-1.62842,3.86979.0023.06006.008.11345.0125.16942A3.64863,3.64863,0,0,0,85.18383,3.47713Z" transform="translate(-10.08111 -0.00574)"/>
    <path class="cls-2" d="M78.20389,3.97923a5.74561,5.74561,0,0,0-3.80869,1.0567,1.4054,1.4054,0,0,0-.58151,1.06013l-.06715.06763a1.2923,1.2923,0,0,0,.57621,2.25652,5.14565,5.14565,0,0,0,1.50228,0c.08564.00748.17087.00166.25641.00417.00128-.06183.001-.12079.005-.18712C76.167,6.90151,77.18539,5.3688,78.20389,3.97923Z" transform="translate(-10.08111 -0.00574)"/>
    <path class="cls-2" d="M79.03486,14.24519a1.85421,1.85421,0,0,0-.24579-2.48343,4.01893,4.01893,0,0,0-2.282-.73132,4.51239,4.51239,0,0,0-3.88865,1.3966,1.861,1.861,0,0,0-.00769,2.53953C74.57619,16.65173,77.17157,16.17474,79.03486,14.24519Z" transform="translate(-10.08111 -0.00574)"/>
    <path class="cls-2" d="M94.95841,1.79965a4.9449,4.9449,0,0,0-4.543.75719.93493.93493,0,0,0-.253.96368l-.04478.06143c-.59182.812.26883,1.9127,1.1884,2.0452a5.141,5.141,0,0,0,1.42882,0,2.90936,2.90936,0,0,0,3.35957-2.16792A1.5082,1.5082,0,0,0,94.95841,1.79965Z" transform="translate(-10.08111 -0.00574)"/>
    <path class="cls-2" d="M96.54684,8.6413a5.03364,5.03364,0,0,0-2.36945-.6582,3.36879,3.36879,0,0,0-3.29424,1.25625,1.80037,1.80037,0,0,0,.71031,2.27665c2.33084,1.50531,4.64966,1.07967,5.87627-.6457C97.885,10.31654,97.31294,9.08871,96.54684,8.6413Z" transform="translate(-10.08111 -0.00574)"/>
    <path class="cls-2" d="M105.03031,1.79965c-1.82019-.45494-3.4208-.2285-4.392.75719a.856.856,0,0,0-.06083.96368L100.545,3.582c-.4299.812.65027,1.9127,1.59626,2.0452a5.13776,5.13776,0,0,0,1.42882,0c1.67029.13315,2.8593-.59121,2.92722-2.16792A2.09222,2.09222,0,0,0,105.03031,1.79965Z" transform="translate(-10.08111 -0.00574)"/>
    <path class="cls-2" d="M107.92033,8.64131a5.81643,5.81643,0,0,0-2.5-.65822,2.8086,2.8086,0,0,0-3.0451,1.25628c-.3366.61066.34485,1.87143,1.16186,2.27663,2.62939,1.50532,4.86378,1.07968,5.74819-.64571C109.59067,10.31654,108.77515,9.08869,107.92033,8.64131Z" transform="translate(-10.08111 -0.00574)"/>
    <path class="cls-2" d="M115.04686,1.79965c-1.91041-.45494-3.46611-.2285-4.24182.75719-.1936.23757-.08961.59808.1303.96368L110.915,3.582c-.26885.812,1.02962,1.9127,2.00189,2.0452a5.13258,5.13258,0,0,0,1.42882,0c1.6967.13315,2.742-.59121,2.49726-2.16792A2.62671,2.62671,0,0,0,115.04686,1.79965Z" transform="translate(-10.08111 -0.00574)"/>
    <path class="cls-2" d="M119.35664,8.64131a6.68175,6.68175,0,0,0-2.63128-.65822,2.32367,2.32367,0,0,0-2.79457,1.25628c-.21482.61066.71807,1.87143,1.61589,2.27663,2.92959,1.50532,5.07909,1.07968,5.61942-.64571.195-.55375-.92875-1.7816-1.80945-2.229Z" transform="translate(-10.08111 -0.00574)"/>
    <path class="cls-2" d="M80.60692,17.54633c.93023,0,1.8575.06508,2.78645.13247a4.27034,4.27034,0,0,0-1.95915-.7643C81.17158,17.13443,80.89738,17.34646,80.60692,17.54633Z" transform="translate(-10.08111 -0.00574)"/>
    <path class="cls-2" d="M74.446,21.15019a20.9309,20.9309,0,0,0-4.166.13239c-3.873.22111-7.77.78-11.77539,1.2336-.62431,0-1.21444-.114-1.83776-.114-4.12389-.22679-8.69181-1.66631-13.935,1.39178-1.45941.83732-2.43759,3.08192-1.97762,3.99239,2.69967,6.26625,11.15751,2.44511,17.34864,2.5855,3.63923,0,7.18341.5668,10.90143.85325,2.52714.144,6.14934,1.61294,8.17678-1.68839,1.20747-2.14321,1.29734-5.02627.04869-6.79163a3.80945,3.80945,0,0,0-.82458-.8306c-.929-.06739-1.85623-.13247-2.78646-.13247C73.90912,21.58216,74.18332,21.37013,74.446,21.15019Z" transform="translate(-10.08111 -0.00574)"/>
    <path class="cls-2" d="M35.041,22.63046a5.06361,5.06361,0,0,0-3.67377,0,19.64631,19.64631,0,0,0-1.9701.8105c-1.10675,0-2.92348,1.31153-4.26231,3.05134-1.7932,2.36181-1.67955,3.87961-.40147,4.162,2.32773.42735,6.4281-1.52855,9.66389-5.16611C35.378,24.27009,35.60352,22.86016,35.041,22.63046Z" transform="translate(-10.08111 -0.00574)"/>
    <path class="cls-2" d="M97.83419,18.42852a.61929.61929,0,0,0-.39486-.10122,4.04029,4.04029,0,0,0-1.49377-.10091.17812.17812,0,0,0-.19562.10091c-1.226.10122-2.48787.40684-2.88983,1.76375-.87461,2.76913,1.85938,5.39714,3.78635,5.6456,1.77625.25019,4.31651-.86254,4.48787-3.22047A4.10508,4.10508,0,0,0,97.83419,18.42852Z" transform="translate(-10.08111 -0.00574)"/>
    <path class="cls-2" d="M129.87311,20.091a12.85883,12.85883,0,0,0-6.68064-2.36483c-2.888-.198-5.66176-.09914-8.4964-.09914-2.61659,0-5.55535-.3936-7.67624.5993l-.31725.30372c-.47531.10186-.7579.51239-.582,1.34865,1.29451,7.64525,9.85634,7.38469,13.15543,7.64525a69.64338,69.64338,0,0,0,9.10425-.1305c1.9143-.13006,5.42955.1305,5.51486-2.029C134.01321,23.794,131.90713,21.50369,129.87311,20.091Z" transform="translate(-10.08111 -0.00574)"/>
  </g>
</svg>
