<svg id="Layer_1" data-name="Layer 1"
    xmlns="http://www.w3.org/2000/svg" viewBox="0 0 671.5 135">
    <defs>
        <style>.cls-1{fill:none;}.cls-1,.cls-2{stroke:#1a1a1a;stroke-miterlimit:10;stroke-width:10px;}.cls-2,.cls-4{fill:#1a1a1a;}.cls-3{fill:#fff;}</style>
    </defs>
    <rect class="cls-1" x="5.18" y="5.04" width="661.2" height="125" rx="50"/>
    <rect class="cls-2" x="5.12" y="4.96" width="250" height="125" rx="50"/>
    <path class="cls-3" d="M56,97.5a52.71,52.71,0,0,1-7.22-.5,43,43,0,0,1-6.93-1.51A28.24,28.24,0,0,1,36,93a5.64,5.64,0,0,1-3.19-6A6.51,6.51,0,0,1,34,84a4.33,4.33,0,0,1,2.64-1.68,5.24,5.24,0,0,1,3.61.63,31.11,31.11,0,0,0,7.61,2.77,36.22,36.22,0,0,0,8.1.93c4,0,6.95-.62,8.74-1.85a5.53,5.53,0,0,0,2.69-4.7,4.56,4.56,0,0,0-1.89-3.91A17.47,17.47,0,0,0,59,73.9l-9.5-2q-8.06-1.75-11.92-5.83T33.73,55.34a16.87,16.87,0,0,1,6.6-13.65,21.94,21.94,0,0,1,7.6-3.78,34.84,34.84,0,0,1,9.83-1.31,38.82,38.82,0,0,1,9.15,1.1A27.38,27.38,0,0,1,75,41a5.46,5.46,0,0,1,2.22,2.52,6.06,6.06,0,0,1,.42,3.15,4.85,4.85,0,0,1-3.9,4.24,6.11,6.11,0,0,1-3.87-.75A21.31,21.31,0,0,0,64,48.07a32.66,32.66,0,0,0-6.42-.63,17.42,17.42,0,0,0-6,.92,8.16,8.16,0,0,0-3.74,2.57,6.2,6.2,0,0,0-1.26,3.9,4.92,4.92,0,0,0,1.73,3.87c1.14,1,3.17,1.82,6.09,2.43l9.4,2q8.33,1.75,12.39,5.67a13.58,13.58,0,0,1,4.08,10.29,16.22,16.22,0,0,1-1.77,7.6,17.06,17.06,0,0,1-4.91,5.8A23.39,23.39,0,0,1,66,96.2,35.43,35.43,0,0,1,56,97.5Z"/>
    <path class="cls-3" d="M124.54,97.5a30.57,30.57,0,0,1-15.33-3.78A25.61,25.61,0,0,1,98.92,83.06,34.07,34.07,0,0,1,95.3,67,36.24,36.24,0,0,1,97.36,54.5a27.24,27.24,0,0,1,5.92-9.66,25.36,25.36,0,0,1,9.29-6.14,32.85,32.85,0,0,1,12-2.1A30.74,30.74,0,0,1,140,40.34,25.89,25.89,0,0,1,150.2,50.93a33.53,33.53,0,0,1,3.65,16,36.28,36.28,0,0,1-2.06,12.6,27.51,27.51,0,0,1-6,9.7,25.52,25.52,0,0,1-9.28,6.17A32.8,32.8,0,0,1,124.54,97.5Zm0-11A14.74,14.74,0,0,0,133,84.15a15.11,15.11,0,0,0,5.37-6.72A26.14,26.14,0,0,0,140.24,67q0-9.24-4.15-14.32t-11.55-5.08a15.12,15.12,0,0,0-8.4,2.27,14.16,14.16,0,0,0-5.38,6.59A26.84,26.84,0,0,0,108.91,67q0,9.17,4.16,14.32T124.54,86.5Zm24,18.73a5.64,5.64,0,0,1,1,4,5.3,5.3,0,0,1-1.68,3,6.48,6.48,0,0,1-3.24,1.56,7.31,7.31,0,0,1-3.82-.38,6,6,0,0,1-3.11-2.82l-6-9.57a6.24,6.24,0,0,0-2.82-2.61,10.15,10.15,0,0,0-4.32-.84l9.82-3.78a11.09,11.09,0,0,1,10.84,6Z"/>
    <path class="cls-3" d="M179.13,96.66a6.81,6.81,0,0,1-5-1.76,7,7,0,0,1-1.76-5.12V44.33a6.94,6.94,0,0,1,1.76-5.12,6.82,6.82,0,0,1,5-1.77h16.38q15.12,0,23.44,7.69T227.27,67a34.67,34.67,0,0,1-2.15,12.6,24.55,24.55,0,0,1-6.21,9.33A27.07,27.07,0,0,1,209,94.69a42,42,0,0,1-13.49,2ZM185.35,86h9.32A25.94,25.94,0,0,0,203,84.78,15.3,15.3,0,0,0,209,81.25a14.32,14.32,0,0,0,3.53-5.88A26.6,26.6,0,0,0,213.66,67q0-9.57-4.71-14.24t-14.28-4.66h-9.32Z"/>
    <path class="cls-4" d="M279.57,98.38A5,5,0,0,1,274,92.81V46.15a5,5,0,0,1,5.57-5.58h19.68a26.31,26.31,0,0,1,10.33,1.81,14.23,14.23,0,0,1,6.52,5.16,14,14,0,0,1,2.26,8,13.23,13.23,0,0,1-3,8.85A14.84,14.84,0,0,1,307,69.27V68a15.29,15.29,0,0,1,9.43,4.59,13.71,13.71,0,0,1,3.36,9.6q0,7.71-5.2,11.93t-14.48,4.22Zm4.51-33.29h13.37q5.42,0,8.08-2.09a7.4,7.4,0,0,0,2.66-6.19,7.4,7.4,0,0,0-2.66-6.19c-1.78-1.4-4.47-2.09-8.08-2.09H284.08Zm0,25.34h14.76q5.58,0,8.2-2.18c1.75-1.44,2.63-3.62,2.63-6.51s-.88-5.14-2.63-6.56S302.56,73,298.84,73H284.08Z"/>
    <path class="cls-4" d="M359.6,99.2A28.32,28.32,0,0,1,345,95.51a25.09,25.09,0,0,1-9.72-10.37,33.8,33.8,0,0,1-3.44-15.7,36,36,0,0,1,2-12.26,26.94,26.94,0,0,1,5.62-9.35,24.59,24.59,0,0,1,8.78-6,30,30,0,0,1,11.43-2.09,28.55,28.55,0,0,1,14.68,3.65A24.92,24.92,0,0,1,384,53.69a33.67,33.67,0,0,1,3.44,15.66,36.07,36.07,0,0,1-2,12.3,27,27,0,0,1-5.61,9.43,24.27,24.27,0,0,1-8.78,6A30.08,30.08,0,0,1,359.6,99.2Zm0-9a16.12,16.12,0,0,0,9.07-2.46,15.73,15.73,0,0,0,5.73-7.13,28.15,28.15,0,0,0,2-11.15q0-9.84-4.38-15.26T359.6,48.77a16.38,16.38,0,0,0-9,2.42,15.41,15.41,0,0,0-5.78,7.05,28.07,28.07,0,0,0-2,11.2q0,9.75,4.43,15.25T359.6,90.18Z"/>
    <path class="cls-4" d="M400.69,99a5.09,5.09,0,0,1-3.16-.9,3.7,3.7,0,0,1-1.44-2.42,6.15,6.15,0,0,1,.58-3.41l21.65-48a7.9,7.9,0,0,1,2.58-3.4,6.08,6.08,0,0,1,3.48-1,6,6,0,0,1,3.41,1,7.9,7.9,0,0,1,2.58,3.4l21.73,48a5.84,5.84,0,0,1,.65,3.45,3.56,3.56,0,0,1-1.39,2.42,5,5,0,0,1-3,.86,5.26,5.26,0,0,1-3.57-1.11,9.35,9.35,0,0,1-2.26-3.4l-5.33-12.38L441.6,85H407l4.43-2.87-5.25,12.38A10.63,10.63,0,0,1,404,98,4.62,4.62,0,0,1,400.69,99ZM424.22,52,412.74,79.28l-2.13-2.63H438L436,79.28,424.38,52Z"/>
    <path class="cls-4" d="M469.65,99a5.09,5.09,0,0,1-3.9-1.44,5.55,5.55,0,0,1-1.35-4V45.9a5.27,5.27,0,0,1,1.39-4,5.39,5.39,0,0,1,3.94-1.36h19.76q9.51,0,14.68,4.55t5.16,12.75A17.36,17.36,0,0,1,507,67.06a15.06,15.06,0,0,1-6.77,5.9A25.38,25.38,0,0,1,489.49,75l.74-1.23h2.7a10.51,10.51,0,0,1,5.87,1.64,13.79,13.79,0,0,1,4.38,5.17L509.33,92a6.1,6.1,0,0,1,.91,3.36A3.7,3.7,0,0,1,509,98a4.89,4.89,0,0,1-3.37,1,6.27,6.27,0,0,1-3.6-1,7.88,7.88,0,0,1-2.46-2.91l-8.29-15.25a8,8,0,0,0-3.48-3.73,12.09,12.09,0,0,0-5.13-.94h-7.79V93.63a5.63,5.63,0,0,1-1.31,4A5,5,0,0,1,469.65,99Zm5.24-31.57h12.8q5.65,0,8.56-2.34c1.95-1.56,2.92-3.89,2.92-7s-1-5.37-2.92-6.93-4.79-2.34-8.56-2.34h-12.8Z"/>
    <path class="cls-4" d="M529.5,98.38a5,5,0,0,1-5.57-5.57V46.15a5,5,0,0,1,5.57-5.58h15.91q14.52,0,22.43,7.46t7.91,21.41a35.09,35.09,0,0,1-2,12.34,23.68,23.68,0,0,1-5.9,9.06,25.91,25.91,0,0,1-9.51,5.62,39.91,39.91,0,0,1-12.92,1.92Zm4.92-8.69h10.34a27.3,27.3,0,0,0,8.81-1.27,15.82,15.82,0,0,0,6.23-3.77,15.55,15.55,0,0,0,3.74-6.32,29,29,0,0,0,1.22-8.89q0-10.17-5-15.17t-15-5H534.42Z"/>
    <path class="cls-4" d="M609.62,99.2a50.11,50.11,0,0,1-7.22-.53A37.76,37.76,0,0,1,595.6,97a26.09,26.09,0,0,1-5.74-2.75,5.21,5.21,0,0,1-2.05-2.38,5,5,0,0,1-.37-2.74,4.66,4.66,0,0,1,1.06-2.38,3.65,3.65,0,0,1,2.18-1.27,4,4,0,0,1,2.87.74,27.73,27.73,0,0,0,7.62,3.11,35.24,35.24,0,0,0,8.45,1q6.48,0,9.43-2.18a6.66,6.66,0,0,0,3-5.61,5.41,5.41,0,0,0-2.09-4.51c-1.39-1.1-3.79-2-7.18-2.71l-9-1.89q-7.79-1.64-11.6-5.53a14.09,14.09,0,0,1-3.81-10.29,16,16,0,0,1,1.64-7.3,16.76,16.76,0,0,1,4.63-5.66A21.59,21.59,0,0,1,601.71,41a31.26,31.26,0,0,1,9.14-1.27A34.83,34.83,0,0,1,620.2,41a27.2,27.2,0,0,1,7.95,3.61,4.44,4.44,0,0,1,1.76,2.21,5,5,0,0,1,.21,2.59A4.07,4.07,0,0,1,629,51.56a3.73,3.73,0,0,1-2.26,1.07,5.1,5.1,0,0,1-3.07-.82,23.14,23.14,0,0,0-6.15-2.46,28.71,28.71,0,0,0-6.72-.74,17.67,17.67,0,0,0-6.48,1.06,9.17,9.17,0,0,0-4.14,3,7.38,7.38,0,0,0-1.44,4.55,6,6,0,0,0,2,4.71c1.31,1.18,3.55,2.09,6.72,2.75l8.94,1.89q8.11,1.71,12.1,5.41a12.78,12.78,0,0,1,4,9.84,15.39,15.39,0,0,1-6.19,12.63A21.64,21.64,0,0,1,619.05,98,33.41,33.41,0,0,1,609.62,99.2Z"/>
</svg>